<svg class="img-fluid" id="outputsvg" xmlns="http://www.w3.org/2000/svg" style="transform: none; transform-origin: 50% 50% 0px; cursor: move; max-height: none; transition: none;" width="860" height="260" viewBox="0 0 8600 2600"><g id="lS5pxUFavJD60lwfyHDtIi" fill="rgb(0,46,63)" style="transform: none;"><g><path id="pCrRFxIWH" d="M1195 2475 c-5 -2 -30 -6 -55 -9 -32 -5 -85 -30 -180 -88 -74 -44 -160 -95 -190 -113 -296 -174 -463 -281 -498 -319 -70 -76 -72 -92 -72 -598 0 -504 2 -518 71 -593 37 -40 212 -150 676 -424 162 -95 185 -104 265 -104 56 1 76 6 128 35 57 31 261 153 318 190 15 10 45 27 67 39 22 12 42 24 45 28 3 3 16 12 30 20 73 42 136 82 147 91 7 5 15 10 19 10 3 0 42 23 85 51 88 58 134 116 144 183 3 22 5 252 3 511 l-3 470 -28 48 c-33 56 -67 82 -257 194 -80 46 -239 141 -354 210 -115 69 -228 133 -250 143 -43 18 -94 30 -111 25z m66 -177 c19 -6 99 -51 179 -98 80 -48 231 -138 335 -200 105 -62 203 -124 219 -139 60 -55 61 -58 62 -495 2 -444 -1 -468 -58 -523 -41 -39 -675 -420 -741 -445 -71 -27 -94 -18 -328 123 -31 19 -122 72 -202 119 -263 153 -329 200 -354 250 -23 44 -23 49 -23 462 0 507 -8 473 132 561 143 89 630 378 653 388 30 12 87 11 126 -3z"></path><path id="pGKHge1E6" d="M3980 1841 c-78 -21 -102 -33 -157 -78 -87 -70 -139 -243 -113 -377 24 -127 82 -210 185 -264 45 -24 61 -27 155 -26 87 0 113 4 152 22 61 28 115 84 144 148 26 54 49 192 40 230 l-6 24 -255 0 -254 0 14 48 c18 59 76 116 136 132 68 19 193 8 264 -22 33 -15 63 -24 67 -21 5 2 8 33 8 68 l0 65 -39 20 c-41 20 -191 51 -245 49 -17 0 -60 -9 -96 -18z m240 -453 c0 -13 -9 -41 -19 -63 -51 -113 -190 -137 -273 -49 -26 29 -60 112 -51 127 2 4 80 7 174 7 169 0 169 0 169 -22z"></path><path id="pb538f62X" d="M5185 1845 c-73 -18 -97 -30 -128 -63 -64 -67 -69 -223 -10 -293 48 -56 133 -85 278 -95 139 -9 130 -6 129 -52 -1 -48 -25 -89 -62 -104 -40 -16 -148 -13 -222 7 -100 26 -95 29 -95 -45 l0 -65 55 -18 c83 -28 256 -27 334 1 68 25 99 50 129 107 20 36 22 57 25 235 3 242 3 240 47 240 l35 0 0 64 0 64 -36 12 c-74 25 -178 -6 -190 -56 -8 -30 -15 -30 -43 0 -27 29 -101 61 -156 69 -22 3 -62 -1 -90 -8z m225 -160 l51 -26 -3 -82 -3 -82 -50 -3 c-77 -5 -165 17 -197 49 -22 22 -28 37 -28 71 0 24 7 53 15 66 34 47 129 51 215 7z"></path><path id="pD9EXKn7O" d="M6852 1849 c-57 -11 -137 -55 -174 -98 -129 -147 -125 -433 7 -566 98 -97 293 -121 406 -49 21 13 41 24 44 24 3 0 5 -79 5 -175 l0 -175 80 0 c53 0 80 4 80 11 0 7 2 233 4 503 2 320 0 495 -6 504 -11 12 -86 16 -125 6 -17 -5 -23 -15 -25 -46 l-3 -40 -30 27 c-68 61 -172 90 -263 74z m198 -155 c94 -43 90 -35 90 -220 l0 -162 -31 -26 c-85 -72 -211 -75 -282 -9 -53 51 -71 99 -71 193 -1 101 13 147 58 190 67 66 145 77 236 34z"></path><path id="p6YuEpikU" d="M7940 1848 c-30 -5 -75 -18 -100 -31 l-45 -22 -3 -82 -3 -82 54 29 c68 37 169 64 212 56 51 -10 85 -42 85 -80 0 -49 -32 -71 -160 -112 -98 -31 -121 -42 -156 -78 -50 -49 -65 -111 -45 -186 34 -127 155 -187 329 -162 44 6 95 19 114 28 35 16 35 17 37 86 2 69 2 70 -21 63 -13 -4 -36 -15 -53 -23 -17 -9 -66 -17 -110 -20 -71 -4 -83 -2 -107 18 -21 16 -28 30 -28 55 0 44 28 66 122 93 40 12 102 37 138 55 53 27 69 40 88 77 27 54 29 136 6 186 -48 101 -198 156 -354 132z"></path><path id="pknmLUCPp" d="M4675 1838 c-47 -17 -91 -54 -111 -95 -17 -33 -20 -69 -24 -273 l-5 -235 -61 -5 -61 -5 0 -62 0 -62 46 -6 c26 -3 54 -5 62 -3 11 2 15 -16 19 -92 3 -52 7 -93 10 -92 4 4 50 -1 127 -13 22 -3 22 -1 25 98 l3 102 98 3 97 3 0 64 0 65 -100 0 -100 0 1 188 c0 118 5 200 12 221 22 62 80 86 170 68 l37 -8 0 64 0 64 -39 11 c-47 15 -165 14 -206 0z"></path><path id="pXoj4TjFg" d="M2610 1335 l0 -505 104 0 105 0 26 58 c15 31 35 75 45 97 55 117 190 429 190 436 0 34 28 -15 95 -168 84 -191 110 -250 157 -355 l31 -68 103 0 104 0 0 505 0 505 -74 0 c-47 0 -77 -5 -83 -12 -7 -8 -10 -136 -10 -335 0 -178 -2 -325 -5 -328 -2 -3 -58 110 -123 250 l-118 255 -67 0 -67 0 -63 -137 c-133 -288 -177 -375 -182 -362 -2 8 -4 153 -2 324 1 181 -2 317 -7 327 -8 15 -23 18 -84 18 l-75 0 0 -505z"></path><path id="pA775YXHS" d="M5812 1828 c-9 -9 -12 -105 -12 -369 l0 -356 80 -2 80 -2 0 45 c0 26 3 46 6 46 4 0 22 -14 42 -31 43 -38 84 -56 145 -64 51 -7 140 8 187 31 40 21 88 80 102 129 12 42 21 454 12 538 l-6 47 -78 0 -79 0 -1 -246 c-1 -271 -4 -291 -59 -337 -27 -22 -42 -27 -90 -27 -47 0 -66 5 -103 30 -25 17 -52 38 -59 46 -9 12 -13 80 -15 267 -1 139 -3 255 -3 260 -1 12 -136 8 -149 -5z"></path><path id="p179PtFLch" d="M7486 1824 c-14 -13 -16 -60 -16 -354 0 -186 3 -345 6 -354 5 -13 23 -16 88 -16 l82 0 -2 28 c-1 15 -3 181 -3 370 l-1 342 -69 0 c-50 0 -74 -4 -85 -16z"></path><path id="pu2fP6MTg" d="M7524 1013 c-35 -7 -57 -39 -62 -91 -3 -41 0 -53 21 -78 23 -26 31 -29 79 -27 67 3 98 33 98 94 0 51 -13 75 -50 94 -29 15 -44 16 -86 8z"></path></g></g><g id="l5uzGh7hCnOZGnPmoxPrxmA" fill="rgb(20,155,99)" style="transform: none;"><g><path id="p1ECDMtWr5" d="M1130 2003 c-151 -25 -297 -130 -369 -264 -99 -183 -76 -412 57 -579 20 -25 94 -101 164 -170 144 -141 183 -205 194 -318 4 -35 11 -65 16 -69 6 -3 37 21 70 53 105 104 165 257 156 396 -8 104 -42 162 -178 303 -65 67 -129 142 -143 166 -55 94 -68 217 -32 305 14 34 92 120 101 112 3 -4 0 -33 -6 -66 -15 -74 -2 -145 42 -233 31 -61 87 -124 260 -286 48 -46 85 -90 100 -122 12 -28 28 -49 33 -48 6 2 22 27 37 57 76 156 78 363 3 510 -33 66 -112 149 -181 190 -92 55 -221 80 -324 63z"></path></g></g></svg>