<svg xmlns="http://www.w3.org/2000/svg" version="1.1" xmlns:xlink="http://www.w3.org/1999/xlink" width="1000" height="1000"><g clip-path="url(#SvgjsClipPath1185)"><rect width="1000" height="1000" fill="#ffffff"></rect><g transform="matrix(3.3333333333333335,0,0,3.3333333333333335,100,100)"><svg xmlns="http://www.w3.org/2000/svg" version="1.1" xmlns:xlink="http://www.w3.org/1999/xlink" width="240" height="240"><svg class="img-fluid" id="outputsvg" xmlns="http://www.w3.org/2000/svg" style="transform-origin: 50% 50% 0px; cursor: move; max-height: none; transition: none;" width="240" height="240" viewBox="0 0 2400 2400"><g id="l6lzvCnsXFIYAeRsjZ898fY" fill="rgb(0,47,63)" style="transform: none;"><g style="transform: none;"><path id="p6xdLpGJT" d="M1115 2321 c-41 -10 -34 -6 -463 -263 -335 -201 -387 -236 -417 -276 -19 -26 -39 -65 -45 -87 -7 -27 -10 -190 -8 -520 3 -440 4 -483 21 -513 27 -49 85 -101 168 -151 623 -372 709 -421 756 -432 84 -20 148 -1 288 83 477 287 664 404 693 431 18 17 42 52 55 77 22 45 22 48 22 530 0 485 0 485 -23 531 -12 25 -37 60 -55 77 -47 45 -799 489 -859 507 -55 16 -85 17 -133 6z m124 -176 c23 -8 86 -41 139 -73 53 -33 207 -125 342 -205 135 -79 253 -153 262 -164 46 -51 48 -69 48 -505 0 -380 -2 -416 -19 -454 -10 -22 -31 -51 -47 -63 -15 -12 -183 -115 -373 -229 l-346 -207 -61 0 c-58 0 -66 3 -205 86 -79 47 -234 139 -344 205 -110 65 -214 129 -232 142 -63 47 -63 45 -63 521 -1 472 0 475 58 518 42 31 680 413 716 429 41 17 74 17 125 -1z"></path></g></g><g id="l5sHiUnQvQL3Nw7SYe8A4hp" fill="rgb(20,155,99)" style="transform: none;"><g style="transform: none;"><path id="p13iwt0nGk" d="M1049 1845 c-112 -30 -233 -122 -299 -225 -66 -102 -92 -254 -66 -378 27 -129 72 -200 229 -355 192 -190 228 -250 245 -397 l7 -62 71 72 c116 115 164 225 164 376 0 120 -35 184 -183 335 -139 141 -177 208 -185 322 -6 97 9 145 64 206 52 58 72 66 48 19 -27 -52 -15 -166 25 -253 29 -61 55 -91 196 -230 114 -113 169 -174 185 -208 l23 -49 18 29 c34 51 67 148 78 224 36 264 -101 496 -336 569 -75 23 -210 26 -284 5z"></path></g></g></svg></svg></g></g><defs><clipPath id="SvgjsClipPath1185"><rect width="1000" height="1000" x="0" y="0" rx="350" ry="350"></rect></clipPath></defs></svg>